<svg width="32" height="32" viewBox="0 0 32 32" fill="none" xmlns="http://www.w3.org/2000/svg">
<path d="M19.0919 16.5917C19.9089 15.9489 20.5052 15.0675 20.7979 14.07C21.0906 13.0725 21.0652 12.0086 20.7251 11.0262C20.385 10.0439 19.7471 9.19202 18.9003 8.58907C18.0535 7.98612 17.0398 7.66211 16.0002 7.66211C14.9607 7.66211 13.947 7.98612 13.1002 8.58907C12.2534 9.19202 11.6155 10.0439 11.2754 11.0262C10.9353 12.0086 10.9098 13.0725 11.2025 14.07C11.4952 15.0675 12.0916 15.9489 12.9086 16.5917C11.5086 17.1526 10.2871 18.0828 9.37432 19.2833C8.46149 20.4838 7.89154 21.9094 7.72524 23.4084C7.7132 23.5178 7.72284 23.6285 7.7536 23.7342C7.78435 23.8399 7.83563 23.9386 7.9045 24.0245C8.04359 24.1979 8.24589 24.309 8.46691 24.3334C8.68792 24.3577 8.90954 24.2932 9.08301 24.1541C9.25648 24.015 9.3676 23.8127 9.39191 23.5917C9.5749 21.9627 10.3516 20.4582 11.5738 19.3657C12.7959 18.2732 14.3777 17.6692 16.0169 17.6692C17.6562 17.6692 19.2379 18.2732 20.4601 19.3657C21.6822 20.4582 22.4589 21.9627 22.6419 23.5917C22.6646 23.7965 22.7623 23.9856 22.9162 24.1225C23.0701 24.2595 23.2692 24.3346 23.4752 24.3334H23.5669C23.7854 24.3082 23.985 24.1978 24.1224 24.0261C24.2597 23.8544 24.3237 23.6353 24.3002 23.4167C24.1332 21.9135 23.5601 20.4842 22.6426 19.2819C21.7251 18.0795 20.4977 17.1496 19.0919 16.5917ZM16.0002 16C15.341 16 14.6965 15.8045 14.1483 15.4383C13.6002 15.072 13.1729 14.5514 12.9206 13.9423C12.6684 13.3332 12.6023 12.663 12.731 12.0164C12.8596 11.3698 13.177 10.7758 13.6432 10.3097C14.1094 9.84349 14.7033 9.52602 15.3499 9.39741C15.9965 9.26879 16.6668 9.3348 17.2759 9.58709C17.8849 9.83938 18.4055 10.2666 18.7718 10.8148C19.1381 11.363 19.3336 12.0074 19.3336 12.6667C19.3336 13.5507 18.9824 14.3986 18.3573 15.0237C17.7321 15.6488 16.8843 16 16.0002 16Z" fill="white"/>
<rect x="1" y="1" width="30" height="30" rx="15" stroke="white" stroke-width="2"/>
</svg>
