<svg width="22" height="22" viewBox="0 0 22 22" fill="none" xmlns="http://www.w3.org/2000/svg">
<path d="M16.4267 10.6515C16.383 10.539 16.3176 10.4362 16.2342 10.349L11.6508 5.76568C11.5654 5.68021 11.4639 5.61241 11.3522 5.56616C11.2406 5.5199 11.1209 5.49609 11 5.49609C10.7559 5.49609 10.5218 5.59307 10.3492 5.76568C10.2637 5.85115 10.1959 5.95261 10.1496 6.06428C10.1034 6.17595 10.0796 6.29564 10.0796 6.41651C10.0796 6.66062 10.1766 6.89473 10.3492 7.06734L13.3742 10.0832H6.41667C6.17355 10.0832 5.94039 10.1798 5.76849 10.3517C5.59658 10.5236 5.5 10.7567 5.5 10.9998C5.5 11.243 5.59658 11.4761 5.76849 11.648C5.94039 11.8199 6.17355 11.9165 6.41667 11.9165H13.3742L10.3492 14.9323C10.2632 15.0176 10.1951 15.1189 10.1485 15.2306C10.102 15.3424 10.078 15.4622 10.078 15.5832C10.078 15.7042 10.102 15.824 10.1485 15.9357C10.1951 16.0474 10.2632 16.1488 10.3492 16.234C10.4344 16.3199 10.5358 16.3881 10.6475 16.4347C10.7592 16.4812 10.879 16.5052 11 16.5052C11.121 16.5052 11.2408 16.4812 11.3525 16.4347C11.4642 16.3881 11.5656 16.3199 11.6508 16.234L16.2342 11.6507C16.3176 11.5635 16.383 11.4607 16.4267 11.3482C16.5183 11.125 16.5183 10.8747 16.4267 10.6515Z" fill="white"/>
</svg>
