<svg width="14" height="10" viewBox="0 0 14 10" fill="none" xmlns="http://www.w3.org/2000/svg">
<path d="M11.1671 2.91666H3.1754L4.25874 1.84166C4.41566 1.68474 4.50381 1.47192 4.50381 1.25C4.50381 1.02808 4.41566 0.81525 4.25874 0.65833C4.10182 0.50141 3.88899 0.413254 3.66707 0.413254C3.44515 0.413254 3.23232 0.50141 3.0754 0.65833L0.575402 3.15833C0.499535 3.23758 0.440064 3.33104 0.400402 3.43333C0.317054 3.63621 0.317054 3.86378 0.400402 4.06666C0.440064 4.16896 0.499535 4.26241 0.575402 4.34166L3.0754 6.84166C3.15287 6.91977 3.24504 6.98177 3.34659 7.02407C3.44814 7.06638 3.55706 7.08816 3.66707 7.08816C3.77708 7.08816 3.886 7.06638 3.98755 7.02407C4.0891 6.98177 4.18127 6.91977 4.25874 6.84166C4.33684 6.76419 4.39884 6.67203 4.44114 6.57048C4.48345 6.46893 4.50523 6.36001 4.50523 6.25C4.50523 6.13999 4.48345 6.03107 4.44114 5.92952C4.39884 5.82797 4.33684 5.7358 4.25874 5.65833L3.1754 4.58333H11.1671C11.3881 4.58333 11.6 4.67113 11.7563 4.82741C11.9126 4.98369 12.0004 5.19565 12.0004 5.41666V8.75C12.0004 8.97101 12.0882 9.18297 12.2445 9.33925C12.4008 9.49553 12.6127 9.58333 12.8337 9.58333C13.0547 9.58333 13.2667 9.49553 13.423 9.33925C13.5793 9.18297 13.6671 8.97101 13.6671 8.75V5.41666C13.6671 4.75362 13.4037 4.11774 12.9348 3.6489C12.466 3.18006 11.8301 2.91666 11.1671 2.91666Z" fill="#3887FE"/>
</svg>
