<svg width="17" height="18" viewBox="0 0 17 18" fill="none" xmlns="http://www.w3.org/2000/svg">
<path d="M10.2998 9.17508C10.3777 9.25232 10.4701 9.31342 10.5716 9.35489C10.6731 9.39636 10.7818 9.41738 10.8915 9.41675C11.0012 9.41738 11.1099 9.39636 11.2114 9.35489C11.313 9.31342 11.4053 9.25232 11.4832 9.17508C11.5613 9.09761 11.6233 9.00545 11.6656 8.9039C11.7079 8.80235 11.7297 8.69343 11.7297 8.58342C11.7297 8.47341 11.7079 8.36448 11.6656 8.26293C11.6233 8.16139 11.5613 8.06922 11.4832 7.99175L10.8248 7.33342L11.4832 6.67508C11.5609 6.59738 11.6225 6.50514 11.6646 6.40362C11.7066 6.3021 11.7283 6.1933 11.7283 6.08342C11.7283 5.97353 11.7066 5.86473 11.6646 5.76321C11.6225 5.66169 11.5609 5.56945 11.4832 5.49175C11.4055 5.41405 11.3132 5.35242 11.2117 5.31037C11.1102 5.26831 11.0014 5.24667 10.8915 5.24667C10.7816 5.24667 10.6728 5.26831 10.5713 5.31037C10.4698 5.35242 10.3775 5.41405 10.2998 5.49175L9.04984 6.74175C8.97173 6.81922 8.90974 6.91139 8.86743 7.01293C8.82512 7.11448 8.80334 7.22341 8.80334 7.33342C8.80334 7.44342 8.82512 7.55235 8.86743 7.6539C8.90974 7.75545 8.97173 7.84761 9.04984 7.92508L10.2998 9.17508ZM6.06651 9.17508L7.31651 7.92508C7.39461 7.84761 7.45661 7.75545 7.49892 7.6539C7.54122 7.55235 7.56301 7.44342 7.56301 7.33342C7.56301 7.22341 7.54122 7.11448 7.49892 7.01293C7.45661 6.91139 7.39461 6.81922 7.31651 6.74175L6.06651 5.49175C5.90959 5.33483 5.69676 5.24667 5.47484 5.24667C5.25292 5.24667 5.04009 5.33483 4.88317 5.49175C4.72625 5.64867 4.6381 5.8615 4.6381 6.08342C4.6381 6.30533 4.72625 6.51816 4.88317 6.67508L5.54984 7.33342L4.88317 7.99175C4.80507 8.06922 4.74307 8.16139 4.70076 8.26293C4.65846 8.36448 4.63668 8.47341 4.63668 8.58342C4.63668 8.69343 4.65846 8.80235 4.70076 8.9039C4.74307 9.00545 4.80507 9.09761 4.88317 9.17508C4.96104 9.25232 5.05339 9.31342 5.15492 9.35489C5.25645 9.39636 5.36517 9.41738 5.47484 9.41675C5.58451 9.41738 5.69323 9.39636 5.79476 9.35489C5.89629 9.31342 5.98864 9.25232 6.06651 9.17508ZM10.4665 10.8417C9.90944 11.2909 9.21542 11.5358 8.49984 11.5358C7.78426 11.5358 7.09024 11.2909 6.53317 10.8417C6.36299 10.7003 6.14359 10.6322 5.92324 10.6526C5.70288 10.6729 5.49962 10.7799 5.35817 10.9501C5.21673 11.1203 5.14867 11.3397 5.16899 11.56C5.18931 11.7804 5.29633 11.9836 5.46651 12.1251C6.31762 12.8356 7.39114 13.2248 8.49984 13.2248C9.60854 13.2248 10.6821 12.8356 11.5332 12.1251C11.7034 11.9836 11.8104 11.7804 11.8307 11.56C11.851 11.3397 11.783 11.1203 11.6415 10.9501C11.5715 10.8658 11.4855 10.7962 11.3886 10.7451C11.2916 10.6941 11.1856 10.6626 11.0764 10.6526C10.8561 10.6322 10.6367 10.7003 10.4665 10.8417ZM8.49984 0.666748C6.85166 0.666748 5.2405 1.15549 3.87009 2.07117C2.49968 2.98685 1.43158 4.28834 0.800845 5.81105C0.170115 7.33377 0.00508682 9.00933 0.32663 10.6258C0.648174 12.2423 1.44185 13.7272 2.60728 14.8926C3.77272 16.0581 5.25758 16.8517 6.87409 17.1733C8.4906 17.4948 10.1662 17.3298 11.6889 16.6991C13.2116 16.0683 14.5131 15.0002 15.4288 13.6298C16.3444 12.2594 16.8332 10.6483 16.8332 9.00008C16.8332 7.90573 16.6176 6.8221 16.1988 5.81105C15.78 4.80001 15.1662 3.88135 14.3924 3.10752C13.6186 2.3337 12.6999 1.71987 11.6889 1.30109C10.6778 0.882296 9.59419 0.666748 8.49984 0.666748ZM8.49984 15.6667C7.1813 15.6667 5.89237 15.2758 4.79604 14.5432C3.69971 13.8107 2.84523 12.7695 2.34064 11.5513C1.83606 10.3331 1.70404 8.99269 1.96127 7.69948C2.21851 6.40627 2.85345 5.21839 3.7858 4.28604C4.71815 3.35369 5.90603 2.71875 7.19924 2.46151C8.49245 2.20428 9.83289 2.3363 11.0511 2.84088C12.2692 3.34547 13.3104 4.19995 14.043 5.29628C14.7755 6.39261 15.1665 7.68154 15.1665 9.00008C15.1665 10.7682 14.4641 12.4639 13.2139 13.7141C11.9636 14.9644 10.268 15.6667 8.49984 15.6667Z" fill="#459804"/>
</svg>
