<svg width="16" height="4" viewBox="0 0 16 4" fill="none" xmlns="http://www.w3.org/2000/svg">
<path d="M8 0.333332C7.08333 0.333332 6.33333 1.08333 6.33333 2C6.33333 2.91667 7.08333 3.66667 8 3.66667C8.91667 3.66667 9.66667 2.91667 9.66667 2C9.66667 1.08333 8.91667 0.333332 8 0.333332ZM2.16667 0.333332C1.25 0.333332 0.5 1.08333 0.5 2C0.5 2.91667 1.25 3.66667 2.16667 3.66667C3.08333 3.66667 3.83333 2.91667 3.83333 2C3.83333 1.08333 3.08333 0.333332 2.16667 0.333332ZM13.8333 0.333332C12.9167 0.333332 12.1667 1.08333 12.1667 2C12.1667 2.91667 12.9167 3.66667 13.8333 3.66667C14.75 3.66667 15.5 2.91667 15.5 2C15.5 1.08333 14.75 0.333332 13.8333 0.333332Z" fill="#384961"/>
</svg>
