<svg width="18" height="18" viewBox="0 0 18 18" fill="none" xmlns="http://www.w3.org/2000/svg">
<path d="M16.6418 0.716687C16.0445 0.613798 15.4396 0.560837 14.8335 0.558353C12.7655 0.556658 10.7406 1.14966 9.00015 2.26669C7.25528 1.16433 5.23069 0.585879 3.16682 0.60002C2.56069 0.602503 1.95582 0.655464 1.35849 0.758353C1.16282 0.792085 0.985636 0.894569 0.85883 1.04735C0.732023 1.20013 0.663932 1.39316 0.666819 1.59169V11.5917C0.665034 11.7141 0.690257 11.8355 0.740694 11.9471C0.79113 12.0586 0.86554 12.1577 0.95863 12.2373C1.05172 12.3169 1.1612 12.3749 1.27928 12.4074C1.39736 12.4398 1.52115 12.4458 1.64182 12.425C2.836 12.2183 4.05949 12.2526 5.24021 12.5259C6.42093 12.7993 7.53501 13.3061 8.51682 14.0167L8.61682 14.075H8.70849C8.8009 14.1135 8.90003 14.1334 9.00015 14.1334C9.10027 14.1334 9.1994 14.1135 9.29182 14.075H9.38349L9.48349 14.0167C10.4585 13.2903 11.5693 12.767 12.7503 12.4778C13.9312 12.1887 15.1582 12.1395 16.3585 12.3334C16.4792 12.3542 16.6029 12.3482 16.721 12.3157C16.8391 12.2833 16.9486 12.2252 17.0417 12.1456C17.1348 12.0661 17.2092 11.967 17.2596 11.8554C17.31 11.7438 17.3353 11.6225 17.3335 11.5V1.50002C17.3248 1.31015 17.2515 1.12895 17.1257 0.986468C16.9999 0.843991 16.8292 0.7488 16.6418 0.716687ZM8.16682 11.7917C6.62506 10.9806 4.90892 10.5573 3.16682 10.5584C2.89182 10.5584 2.61682 10.5584 2.33349 10.5584V2.22502C2.61103 2.20902 2.88927 2.20902 3.16682 2.22502C4.94464 2.22305 6.68366 2.74476 8.16682 3.72502V11.7917ZM15.6668 10.5917C15.3835 10.5917 15.1085 10.5917 14.8335 10.5917C13.0914 10.5906 11.3752 11.0139 9.83349 11.825V3.72502C11.3166 2.74476 13.0557 2.22305 14.8335 2.22502C15.111 2.20902 15.3893 2.20902 15.6668 2.22502V10.5917ZM16.6418 14.05C16.0445 13.9471 15.4396 13.8942 14.8335 13.8917C12.7655 13.89 10.7406 14.483 9.00015 15.6C7.25975 14.483 5.23485 13.89 3.16682 13.8917C2.56069 13.8942 1.95582 13.9471 1.35849 14.05C1.25001 14.0672 1.146 14.1057 1.05245 14.1633C0.958904 14.2208 0.877653 14.2963 0.813374 14.3854C0.749095 14.4744 0.703056 14.5753 0.677905 14.6822C0.652754 14.7891 0.648986 14.9 0.666819 15.0084C0.709167 15.2248 0.835561 15.4156 1.01831 15.5389C1.20106 15.6623 1.42527 15.7083 1.64182 15.6667C2.836 15.4599 4.05949 15.4942 5.24021 15.7676C6.42093 16.0409 7.53501 16.5478 8.51682 17.2584C8.65795 17.3588 8.8269 17.4128 9.00015 17.4128C9.17341 17.4128 9.34235 17.3588 9.48349 17.2584C10.4653 16.5478 11.5794 16.0409 12.7601 15.7676C13.9408 15.4942 15.1643 15.4599 16.3585 15.6667C16.575 15.7083 16.7992 15.6623 16.982 15.5389C17.1647 15.4156 17.2911 15.2248 17.3335 15.0084C17.3513 14.9 17.3475 14.7891 17.3224 14.6822C17.2972 14.5753 17.2512 14.4744 17.1869 14.3854C17.1227 14.2963 17.0414 14.2208 16.9478 14.1633C16.8543 14.1057 16.7503 14.0672 16.6418 14.05Z" fill="#384961"/>
</svg>
