<svg width="40" height="40" viewBox="0 0 40 40" fill="none" xmlns="http://www.w3.org/2000/svg">
<rect width="40" height="40" rx="8" fill="#F3F4FD"/>
<path d="M20.43 12.1C20.2676 12.0298 20.0895 12.0039 19.9138 12.0249C19.7381 12.046 19.5712 12.1133 19.43 12.22L14.65 16H11C10.7348 16 10.4804 16.1054 10.2929 16.2929C10.1054 16.4805 10 16.7348 10 17V23C10 23.2652 10.1054 23.5196 10.2929 23.7071C10.4804 23.8947 10.7348 24 11 24H14.65L19.38 27.78C19.5559 27.9212 19.7744 27.9987 20 28C20.1494 28.0025 20.297 27.9682 20.43 27.9C20.6002 27.819 20.744 27.6915 20.8448 27.5323C20.9457 27.373 20.9995 27.1885 21 27V13C20.9995 12.8115 20.9457 12.627 20.8448 12.4678C20.744 12.3086 20.6002 12.1811 20.43 12.1ZM19 24.92L15.62 22.22C15.4441 22.0789 15.2256 22.0013 15 22H12V18H15C15.2256 17.9987 15.4441 17.9212 15.62 17.78L19 15.08V24.92ZM27.66 14.34C27.4717 14.1517 27.2163 14.0459 26.95 14.0459C26.6837 14.0459 26.4283 14.1517 26.24 14.34C26.0517 14.5283 25.9459 14.7837 25.9459 15.05C25.9459 15.3163 26.0517 15.5717 26.24 15.76C26.8289 16.348 27.289 17.052 27.5911 17.8273C27.8933 18.6026 28.0309 19.4323 27.9951 20.2636C27.9594 21.095 27.7511 21.9098 27.3835 22.6564C27.016 23.4029 26.4971 24.0648 25.86 24.6C25.7053 24.7323 25.5946 24.9087 25.5428 25.1056C25.491 25.3025 25.5005 25.5105 25.5701 25.7018C25.6396 25.8932 25.766 26.0587 25.9321 26.1763C26.0983 26.2939 26.2964 26.358 26.5 26.36C26.7337 26.3605 26.9601 26.2791 27.14 26.13C27.9909 25.4173 28.6843 24.5353 29.1759 23.5402C29.6675 22.545 29.9466 21.4584 29.9955 20.3495C30.0444 19.2406 29.862 18.1337 29.4599 17.0991C29.0579 16.0645 28.4449 15.1249 27.66 14.34ZM24.83 17.17C24.7368 17.0768 24.6261 17.0028 24.5042 16.9524C24.3824 16.9019 24.2519 16.8759 24.12 16.8759C23.9881 16.8759 23.8576 16.9019 23.7358 16.9524C23.6139 17.0028 23.5032 17.0768 23.41 17.17C23.3168 17.2633 23.2428 17.374 23.1923 17.4958C23.1419 17.6176 23.1159 17.7482 23.1159 17.88C23.1159 18.0119 23.1419 18.1425 23.1923 18.2643C23.2428 18.3861 23.3168 18.4968 23.41 18.59C23.7856 18.9634 23.9978 19.4705 24 20C24.0002 20.2914 23.9368 20.5793 23.8142 20.8435C23.6915 21.1078 23.5126 21.3421 23.29 21.53C23.1887 21.614 23.105 21.7171 23.0437 21.8334C22.9823 21.9498 22.9445 22.0771 22.9325 22.2081C22.9204 22.339 22.9343 22.4711 22.9733 22.5967C23.0124 22.7223 23.0758 22.839 23.16 22.94C23.2447 23.0406 23.3483 23.1234 23.465 23.1839C23.5817 23.2443 23.7092 23.2812 23.8401 23.2923C23.9711 23.3035 24.1029 23.2887 24.2282 23.2488C24.3534 23.209 24.4696 23.1448 24.57 23.06C25.0171 22.6851 25.3768 22.217 25.6238 21.6884C25.8709 21.1598 25.9992 20.5835 26 20C25.9944 18.9401 25.5744 17.9245 24.83 17.17Z" fill="#384961"/>
</svg>
