<svg width="16" height="18" viewBox="0 0 16 18" fill="none" xmlns="http://www.w3.org/2000/svg">
<path d="M4.25016 7.33329H5.0835C5.30451 7.33329 5.51647 7.2455 5.67275 7.08922C5.82903 6.93293 5.91683 6.72097 5.91683 6.49996C5.91683 6.27895 5.82903 6.06698 5.67275 5.9107C5.51647 5.75442 5.30451 5.66663 5.0835 5.66663H4.25016C4.02915 5.66663 3.81719 5.75442 3.66091 5.9107C3.50463 6.06698 3.41683 6.27895 3.41683 6.49996C3.41683 6.72097 3.50463 6.93293 3.66091 7.08922C3.81719 7.2455 4.02915 7.33329 4.25016 7.33329ZM7.5835 12.3333H4.25016C4.02915 12.3333 3.81719 12.4211 3.66091 12.5774C3.50463 12.7337 3.41683 12.9456 3.41683 13.1666C3.41683 13.3876 3.50463 13.5996 3.66091 13.7559C3.81719 13.9122 4.02915 14 4.25016 14H7.5835C7.80451 14 8.01647 13.9122 8.17275 13.7559C8.32903 13.5996 8.41683 13.3876 8.41683 13.1666C8.41683 12.9456 8.32903 12.7337 8.17275 12.5774C8.01647 12.4211 7.80451 12.3333 7.5835 12.3333ZM7.5835 8.99996H4.25016C4.02915 8.99996 3.81719 9.08776 3.66091 9.24404C3.50463 9.40032 3.41683 9.61228 3.41683 9.83329C3.41683 10.0543 3.50463 10.2663 3.66091 10.4225C3.81719 10.5788 4.02915 10.6666 4.25016 10.6666H7.5835C7.80451 10.6666 8.01647 10.5788 8.17275 10.4225C8.32903 10.2663 8.41683 10.0543 8.41683 9.83329C8.41683 9.61228 8.32903 9.40032 8.17275 9.24404C8.01647 9.08776 7.80451 8.99996 7.5835 8.99996ZM13.3502 6.81663C13.414 6.66487 13.4314 6.49761 13.4003 6.33595C13.3691 6.17429 13.2908 6.02548 13.1752 5.90829L8.17516 0.908293C8.10628 0.843473 8.02751 0.790027 7.94183 0.749959C7.91695 0.746426 7.8917 0.746426 7.86683 0.749959L7.6335 0.666626H2.5835C1.92045 0.666626 1.28457 0.930018 0.815729 1.39886C0.346888 1.8677 0.0834961 2.50358 0.0834961 3.16663V14.8333C0.0834961 15.4963 0.346888 16.1322 0.815729 16.6011C1.28457 17.0699 1.92045 17.3333 2.5835 17.3333H7.5835C7.80451 17.3333 8.01647 17.2455 8.17275 17.0892C8.32903 16.9329 8.41683 16.721 8.41683 16.5C8.41683 16.2789 8.32903 16.067 8.17275 15.9107C8.01647 15.7544 7.80451 15.6666 7.5835 15.6666H2.5835C2.36248 15.6666 2.15052 15.5788 1.99424 15.4225C1.83796 15.2663 1.75016 15.0543 1.75016 14.8333V3.16663C1.75016 2.94561 1.83796 2.73365 1.99424 2.57737C2.15052 2.42109 2.36248 2.33329 2.5835 2.33329H6.75016V4.83329C6.75016 5.49633 7.01355 6.13222 7.4824 6.60106C7.95124 7.0699 8.58712 7.33329 9.25016 7.33329H12.5835C12.748 7.33247 12.9086 7.28297 13.045 7.19103C13.1815 7.09908 13.2876 6.96881 13.3502 6.81663ZM9.25016 5.66663C9.02915 5.66663 8.81719 5.57883 8.66091 5.42255C8.50463 5.26627 8.41683 5.05431 8.41683 4.83329V3.50829L10.5752 5.66663H9.25016ZM15.0835 8.99996H10.9168C10.6958 8.99996 10.4839 9.08776 10.3276 9.24404C10.1713 9.40032 10.0835 9.61228 10.0835 9.83329V16.5C10.0839 16.6507 10.1252 16.7985 10.203 16.9277C10.2807 17.0568 10.3921 17.1624 10.5252 17.2333C10.6555 17.3002 10.8011 17.3316 10.9474 17.3243C11.0937 17.317 11.2355 17.2712 11.3585 17.1916L13.0002 16.1083L14.6668 17.1916C14.7913 17.2636 14.9323 17.3022 15.0761 17.3035C15.2199 17.3049 15.3617 17.269 15.4875 17.1994C15.6133 17.1298 15.719 17.0288 15.7942 16.9062C15.8695 16.7836 15.9117 16.6437 15.9168 16.5V9.83329C15.9168 9.61228 15.829 9.40032 15.6728 9.24404C15.5165 9.08776 15.3045 8.99996 15.0835 8.99996ZM14.2502 14.9333L13.4668 14.4083C13.329 14.3151 13.1665 14.2654 13.0002 14.2654C12.8338 14.2654 12.6713 14.3151 12.5335 14.4083L11.7502 14.9333V10.6666H14.2502V14.9333Z" fill="#384961"/>
</svg>
