<svg width="40" height="40" viewBox="0 0 40 40" fill="none" xmlns="http://www.w3.org/2000/svg">
<rect width="40" height="40" rx="8" fill="#F9FBFC"/>
<path d="M24.9999 19H17.4099L20.7099 15.71C20.8982 15.5217 21.004 15.2663 21.004 15C21.004 14.7337 20.8982 14.4783 20.7099 14.29C20.5216 14.1017 20.2662 13.9959 19.9999 13.9959C19.7336 13.9959 19.4782 14.1017 19.2899 14.29L14.2899 19.29C14.1989 19.3851 14.1275 19.4973 14.0799 19.62C13.9799 19.8635 13.9799 20.1365 14.0799 20.38C14.1275 20.5028 14.1989 20.6149 14.2899 20.71L19.2899 25.71C19.3829 25.8037 19.4935 25.8781 19.6153 25.9289C19.7372 25.9797 19.8679 26.0058 19.9999 26.0058C20.1319 26.0058 20.2626 25.9797 20.3845 25.9289C20.5063 25.8781 20.6169 25.8037 20.7099 25.71C20.8036 25.617 20.878 25.5064 20.9288 25.3846C20.9796 25.2627 21.0057 25.132 21.0057 25C21.0057 24.868 20.9796 24.7373 20.9288 24.6154C20.878 24.4936 20.8036 24.383 20.7099 24.29L17.4099 21H24.9999C25.2651 21 25.5195 20.8946 25.707 20.7071C25.8945 20.5196 25.9999 20.2652 25.9999 20C25.9999 19.7348 25.8945 19.4804 25.707 19.2929C25.5195 19.1054 25.2651 19 24.9999 19Z" fill="#384961"/>
</svg>
