<svg width="14" height="18" viewBox="0 0 14 18" fill="none" xmlns="http://www.w3.org/2000/svg">
<path d="M0.333496 8.99996C0.333496 9.22097 0.421294 9.43293 0.577574 9.58922C0.733854 9.7455 0.945816 9.83329 1.16683 9.83329H7.49183L5.57516 11.7416C5.49706 11.8191 5.43506 11.9113 5.39275 12.0128C5.35045 12.1144 5.32866 12.2233 5.32866 12.3333C5.32866 12.4433 5.35045 12.5522 5.39275 12.6538C5.43506 12.7553 5.49706 12.8475 5.57516 12.925C5.65263 13.0031 5.7448 13.0651 5.84635 13.1074C5.9479 13.1497 6.05682 13.1715 6.16683 13.1715C6.27684 13.1715 6.38576 13.1497 6.48731 13.1074C6.58886 13.0651 6.68103 13.0031 6.7585 12.925L10.0918 9.59163C10.1677 9.51237 10.2272 9.41892 10.2668 9.31663C10.3502 9.11374 10.3502 8.88618 10.2668 8.68329C10.2272 8.581 10.1677 8.48755 10.0918 8.40829L6.7585 5.07496C6.6808 4.99726 6.58856 4.93563 6.48704 4.89358C6.38552 4.85153 6.27671 4.82988 6.16683 4.82988C6.05695 4.82988 5.94814 4.85153 5.84662 4.89358C5.7451 4.93563 5.65286 4.99726 5.57516 5.07496C5.49746 5.15266 5.43583 5.2449 5.39378 5.34642C5.35173 5.44794 5.33009 5.55674 5.33009 5.66663C5.33009 5.77651 5.35173 5.88532 5.39378 5.98683C5.43583 6.08835 5.49746 6.18059 5.57516 6.25829L7.49183 8.16663H1.16683C0.945816 8.16663 0.733854 8.25442 0.577574 8.4107C0.421294 8.56698 0.333496 8.77895 0.333496 8.99996ZM11.1668 0.666626H2.8335C2.17045 0.666626 1.53457 0.930018 1.06573 1.39886C0.596888 1.8677 0.333496 2.50358 0.333496 3.16663V5.66663C0.333496 5.88764 0.421294 6.0996 0.577574 6.25588C0.733854 6.41216 0.945816 6.49996 1.16683 6.49996C1.38784 6.49996 1.5998 6.41216 1.75608 6.25588C1.91237 6.0996 2.00016 5.88764 2.00016 5.66663V3.16663C2.00016 2.94561 2.08796 2.73365 2.24424 2.57737C2.40052 2.42109 2.61248 2.33329 2.8335 2.33329H11.1668C11.3878 2.33329 11.5998 2.42109 11.7561 2.57737C11.9124 2.73365 12.0002 2.94561 12.0002 3.16663V14.8333C12.0002 15.0543 11.9124 15.2663 11.7561 15.4225C11.5998 15.5788 11.3878 15.6666 11.1668 15.6666H2.8335C2.61248 15.6666 2.40052 15.5788 2.24424 15.4225C2.08796 15.2663 2.00016 15.0543 2.00016 14.8333V12.3333C2.00016 12.1123 1.91237 11.9003 1.75608 11.744C1.5998 11.5878 1.38784 11.5 1.16683 11.5C0.945816 11.5 0.733854 11.5878 0.577574 11.744C0.421294 11.9003 0.333496 12.1123 0.333496 12.3333V14.8333C0.333496 15.4963 0.596888 16.1322 1.06573 16.6011C1.53457 17.0699 2.17045 17.3333 2.8335 17.3333H11.1668C11.8299 17.3333 12.4658 17.0699 12.9346 16.6011C13.4034 16.1322 13.6668 15.4963 13.6668 14.8333V3.16663C13.6668 2.50358 13.4034 1.8677 12.9346 1.39886C12.4658 0.930018 11.8299 0.666626 11.1668 0.666626Z" fill="white"/>
</svg>
