<svg width="20" height="20" viewBox="0 0 20 20" fill="none" xmlns="http://www.w3.org/2000/svg">
<path d="M3.33334 9.99984C3.33334 10.2209 3.42114 10.4328 3.57742 10.5891C3.7337 10.7454 3.94566 10.8332 4.16668 10.8332H10.4917L8.57501 12.7415C8.4969 12.819 8.43491 12.9111 8.3926 13.0127C8.35029 13.1142 8.32851 13.2232 8.32851 13.3332C8.32851 13.4432 8.35029 13.5521 8.3926 13.6537C8.43491 13.7552 8.4969 13.8474 8.57501 13.9248C8.65248 14.0029 8.74465 14.0649 8.8462 14.1072C8.94775 14.1496 9.05667 14.1713 9.16668 14.1713C9.27669 14.1713 9.38561 14.1496 9.48716 14.1072C9.58871 14.0649 9.68087 14.0029 9.75834 13.9248L13.0917 10.5915C13.1675 10.5123 13.227 10.4188 13.2667 10.3165C13.35 10.1136 13.35 9.88605 13.2667 9.68317C13.227 9.58088 13.1675 9.48742 13.0917 9.40817L9.75834 6.07484C9.68064 5.99714 9.5884 5.9355 9.48688 5.89345C9.38537 5.8514 9.27656 5.82976 9.16668 5.82976C9.05679 5.82976 8.94799 5.8514 8.84647 5.89345C8.74495 5.9355 8.65271 5.99714 8.57501 6.07484C8.49731 6.15254 8.43568 6.24478 8.39363 6.3463C8.35158 6.44781 8.32993 6.55662 8.32993 6.6665C8.32993 6.77639 8.35158 6.88519 8.39363 6.98671C8.43568 7.08823 8.49731 7.18047 8.57501 7.25817L10.4917 9.1665H4.16668C3.94566 9.1665 3.7337 9.2543 3.57742 9.41058C3.42114 9.56686 3.33334 9.77882 3.33334 9.99984ZM14.1667 1.6665H5.83334C5.1703 1.6665 4.53442 1.9299 4.06558 2.39874C3.59674 2.86758 3.33334 3.50346 3.33334 4.1665V6.6665C3.33334 6.88752 3.42114 7.09948 3.57742 7.25576C3.7337 7.41204 3.94566 7.49984 4.16668 7.49984C4.38769 7.49984 4.59965 7.41204 4.75593 7.25576C4.91221 7.09948 5.00001 6.88752 5.00001 6.6665V4.1665C5.00001 3.94549 5.08781 3.73353 5.24409 3.57725C5.40037 3.42097 5.61233 3.33317 5.83334 3.33317H14.1667C14.3877 3.33317 14.5997 3.42097 14.7559 3.57725C14.9122 3.73353 15 3.94549 15 4.1665V15.8332C15 16.0542 14.9122 16.2661 14.7559 16.4224C14.5997 16.5787 14.3877 16.6665 14.1667 16.6665H5.83334C5.61233 16.6665 5.40037 16.5787 5.24409 16.4224C5.08781 16.2661 5.00001 16.0542 5.00001 15.8332V13.3332C5.00001 13.1122 4.91221 12.9002 4.75593 12.7439C4.59965 12.5876 4.38769 12.4998 4.16668 12.4998C3.94566 12.4998 3.7337 12.5876 3.57742 12.7439C3.42114 12.9002 3.33334 13.1122 3.33334 13.3332V15.8332C3.33334 16.4962 3.59674 17.1321 4.06558 17.6009C4.53442 18.0698 5.1703 18.3332 5.83334 18.3332H14.1667C14.8297 18.3332 15.4656 18.0698 15.9344 17.6009C16.4033 17.1321 16.6667 16.4962 16.6667 15.8332V4.1665C16.6667 3.50346 16.4033 2.86758 15.9344 2.39874C15.4656 1.9299 14.8297 1.6665 14.1667 1.6665Z" fill="#453FE3"/>
</svg>
