<svg width="18" height="18" viewBox="0 0 18 18" fill="none" xmlns="http://www.w3.org/2000/svg">
<path d="M10.9665 10.8584C10.4094 11.3076 9.71542 11.5525 8.99984 11.5525C8.28426 11.5525 7.59024 11.3076 7.03317 10.8584C6.86299 10.717 6.64359 10.6489 6.42324 10.6692C6.20288 10.6895 5.99962 10.7966 5.85817 10.9667C5.71673 11.1369 5.64867 11.3563 5.66899 11.5767C5.68931 11.797 5.79633 12.0003 5.96651 12.1417C6.81762 12.8523 7.89114 13.2414 8.99984 13.2414C10.1085 13.2414 11.1821 12.8523 12.0332 12.1417C12.2034 12.0003 12.3104 11.797 12.3307 11.5767C12.351 11.3563 12.283 11.1369 12.1415 10.9667C12.0715 10.8825 11.9855 10.8128 11.8886 10.7618C11.7916 10.7107 11.6856 10.6793 11.5764 10.6692C11.3561 10.6489 11.1367 10.717 10.9665 10.8584ZM6.49984 8.16675C6.66466 8.16675 6.82578 8.11787 6.96282 8.02631C7.09986 7.93474 7.20667 7.80459 7.26974 7.65232C7.33281 7.50005 7.34932 7.33249 7.31716 7.17084C7.28501 7.00919 7.20564 6.8607 7.0891 6.74416C6.97255 6.62762 6.82407 6.54825 6.66242 6.51609C6.50076 6.48394 6.33321 6.50044 6.18094 6.56352C6.02867 6.62659 5.89852 6.7334 5.80695 6.87044C5.71538 7.00748 5.66651 7.1686 5.66651 7.33342C5.66651 7.55443 5.7543 7.76639 5.91059 7.92267C6.06687 8.07895 6.27883 8.16675 6.49984 8.16675ZM11.4998 6.50008C11.335 6.50008 11.1739 6.54896 11.0369 6.64052C10.8998 6.73209 10.793 6.86224 10.7299 7.01451C10.6669 7.16678 10.6504 7.33434 10.6825 7.49599C10.7147 7.65764 10.794 7.80613 10.9106 7.92267C11.0271 8.03921 11.1756 8.11858 11.3373 8.15074C11.4989 8.18289 11.6665 8.16639 11.8187 8.10331C11.971 8.04024 12.1012 7.93343 12.1927 7.79639C12.2843 7.65935 12.3332 7.49823 12.3332 7.33342C12.3332 7.1124 12.2454 6.90044 12.0891 6.74416C11.9328 6.58788 11.7209 6.50008 11.4998 6.50008ZM8.99984 0.666748C7.35166 0.666748 5.7405 1.15549 4.37009 2.07117C2.99968 2.98685 1.93158 4.28834 1.30084 5.81105C0.670115 7.33377 0.505087 9.00933 0.82663 10.6258C1.14817 12.2423 1.94185 13.7272 3.10728 14.8926C4.27272 16.0581 5.75758 16.8517 7.37409 17.1733C8.9906 17.4948 10.6662 17.3298 12.1889 16.6991C13.7116 16.0683 15.0131 15.0002 15.9288 13.6298C16.8444 12.2594 17.3332 10.6483 17.3332 9.00008C17.3332 7.90573 17.1176 6.8221 16.6988 5.81105C16.28 4.80001 15.6662 3.88135 14.8924 3.10752C14.1186 2.3337 13.1999 1.71987 12.1889 1.30109C11.1778 0.882296 10.0942 0.666748 8.99984 0.666748ZM8.99984 15.6667C7.6813 15.6667 6.39237 15.2758 5.29604 14.5432C4.19971 13.8107 3.34523 12.7695 2.84064 11.5513C2.33606 10.3331 2.20404 8.99269 2.46127 7.69948C2.71851 6.40627 3.35345 5.21839 4.2858 4.28604C5.21815 3.35369 6.40603 2.71875 7.69924 2.46151C8.99245 2.20428 10.3329 2.3363 11.5511 2.84088C12.7692 3.34547 13.8104 4.19995 14.543 5.29628C15.2755 6.39261 15.6665 7.68154 15.6665 9.00008C15.6665 10.7682 14.9641 12.4639 13.7139 13.7141C12.4636 14.9644 10.768 15.6667 8.99984 15.6667Z" fill="#3887FE"/>
</svg>
