<svg width="22" height="22" viewBox="0 0 22 22" fill="none" xmlns="http://www.w3.org/2000/svg">
<path d="M9.94 5.08C10.2908 5.02624 10.6451 4.99949 11 5C14.18 5 17.17 7.29 18.91 11C18.6439 11.5646 18.3433 12.1123 18.01 12.64C17.9042 12.8038 17.8486 12.995 17.85 13.19C17.8522 13.4082 17.9258 13.6198 18.0595 13.7923C18.1931 13.9648 18.3796 14.0889 18.5903 14.1455C18.8011 14.2022 19.0246 14.1883 19.2268 14.1061C19.4289 14.0238 19.5986 13.8777 19.71 13.69C20.1759 12.9579 20.5806 12.1887 20.92 11.39C20.9737 11.2652 21.0013 11.1308 21.0013 10.995C21.0013 10.8592 20.9737 10.7248 20.92 10.6C18.9 5.91 15.1 3 11 3C10.5307 2.99764 10.0621 3.0378 9.6 3.12C9.46868 3.14233 9.34304 3.1903 9.23026 3.26118C9.11748 3.33206 9.01976 3.42446 8.94269 3.5331C8.86561 3.64175 8.8107 3.76451 8.78107 3.89438C8.75144 4.02425 8.74768 4.15868 8.77 4.29C8.79233 4.42132 8.8403 4.54696 8.91118 4.65975C8.98206 4.77253 9.07446 4.87024 9.1831 4.94732C9.29175 5.02439 9.41451 5.07931 9.54438 5.10894C9.67425 5.13857 9.80868 5.14233 9.94 5.12V5.08ZM2.71 1.29C2.61676 1.19676 2.50607 1.1228 2.38425 1.07234C2.26243 1.02188 2.13186 0.995911 2 0.995911C1.86814 0.995911 1.73758 1.02188 1.61575 1.07234C1.49393 1.1228 1.38324 1.19676 1.29 1.29C1.1017 1.47831 0.995911 1.7337 0.995911 2C0.995911 2.2663 1.1017 2.5217 1.29 2.71L4.39 5.8C2.97558 7.16153 1.84986 8.79399 1.08 10.6C1.02494 10.7262 0.996517 10.8623 0.996517 11C0.996517 11.1377 1.02494 11.2738 1.08 11.4C3.1 16.09 6.9 19 11 19C12.7971 18.9876 14.5518 18.4525 16.05 17.46L19.29 20.71C19.383 20.8037 19.4936 20.8781 19.6154 20.9289C19.7373 20.9797 19.868 21.0058 20 21.0058C20.132 21.0058 20.2627 20.9797 20.3846 20.9289C20.5064 20.8781 20.617 20.8037 20.71 20.71C20.8037 20.617 20.8781 20.5064 20.9289 20.3846C20.9797 20.2627 21.0058 20.132 21.0058 20C21.0058 19.868 20.9797 19.7373 20.9289 19.6154C20.8781 19.4936 20.8037 19.383 20.71 19.29L2.71 1.29ZM9.07 10.48L11.52 12.93C11.351 12.9785 11.1758 13.002 11 13C10.4696 13 9.96086 12.7893 9.58579 12.4142C9.21072 12.0391 9 11.5304 9 11C8.99795 10.8242 9.02154 10.649 9.07 10.48ZM11 17C7.82 17 4.83 14.71 3.1 11C3.74609 9.57375 4.66307 8.28658 5.8 7.21L7.57 9C7.15425 9.7588 6.99574 10.6319 7.11826 11.4885C7.24078 12.345 7.63772 13.1387 8.24953 13.7505C8.86134 14.3623 9.65503 14.7592 10.5115 14.8817C11.3681 15.0043 12.2412 14.8458 13 14.43L14.59 16C13.5011 16.6409 12.2634 16.9856 11 17Z" fill="#384961"/>
</svg>
