<svg width="12" height="18" viewBox="0 0 12 18" fill="none" xmlns="http://www.w3.org/2000/svg">
<path d="M11.0003 0.666667H1.00033C0.779312 0.666667 0.56735 0.754464 0.41107 0.910744C0.25479 1.06702 0.166992 1.27899 0.166992 1.5V16.5C0.166982 16.6593 0.212633 16.8153 0.298537 16.9494C0.384442 17.0836 0.507 17.1903 0.651692 17.257C0.796385 17.3236 0.957149 17.3474 1.11494 17.3255C1.27273 17.3036 1.42093 17.2369 1.54199 17.1333L6.00033 13.3917L10.4087 17.0917C10.4865 17.1689 10.5789 17.23 10.6804 17.2715C10.7819 17.3129 10.8907 17.334 11.0003 17.3333C11.1096 17.3361 11.2181 17.3133 11.317 17.2667C11.4692 17.2041 11.5994 17.098 11.6914 16.9616C11.7833 16.8251 11.8328 16.6645 11.8337 16.5V1.5C11.8337 1.27899 11.7459 1.06702 11.5896 0.910744C11.4333 0.754464 11.2213 0.666667 11.0003 0.666667ZM10.167 14.7167L6.53366 11.6667C6.38392 11.5419 6.1952 11.4736 6.00033 11.4736C5.80545 11.4736 5.61673 11.5419 5.46699 11.6667L1.83366 14.7167V2.33333H10.167V14.7167Z" fill="#1BB763"/>
</svg>
