<svg width="16" height="18" viewBox="0 0 16 18" fill="none" xmlns="http://www.w3.org/2000/svg">
<path d="M6.33333 14C6.55435 14 6.76631 13.9122 6.92259 13.7559C7.07887 13.5996 7.16667 13.3877 7.16667 13.1667V8.16667C7.16667 7.94565 7.07887 7.73369 6.92259 7.57741C6.76631 7.42113 6.55435 7.33333 6.33333 7.33333C6.11232 7.33333 5.90036 7.42113 5.74408 7.57741C5.5878 7.73369 5.5 7.94565 5.5 8.16667V13.1667C5.5 13.3877 5.5878 13.5996 5.74408 13.7559C5.90036 13.9122 6.11232 14 6.33333 14ZM14.6667 4H11.3333V3.16667C11.3333 2.50363 11.0699 1.86774 10.6011 1.3989C10.1323 0.93006 9.49637 0.666668 8.83333 0.666668H7.16667C6.50363 0.666668 5.86774 0.93006 5.3989 1.3989C4.93006 1.86774 4.66667 2.50363 4.66667 3.16667V4H1.33333C1.11232 4 0.900358 4.0878 0.744078 4.24408C0.587797 4.40036 0.5 4.61232 0.5 4.83333C0.5 5.05435 0.587797 5.26631 0.744078 5.42259C0.900358 5.57887 1.11232 5.66667 1.33333 5.66667H2.16667V14.8333C2.16667 15.4964 2.43006 16.1323 2.8989 16.6011C3.36774 17.0699 4.00363 17.3333 4.66667 17.3333H11.3333C11.9964 17.3333 12.6323 17.0699 13.1011 16.6011C13.5699 16.1323 13.8333 15.4964 13.8333 14.8333V5.66667H14.6667C14.8877 5.66667 15.0996 5.57887 15.2559 5.42259C15.4122 5.26631 15.5 5.05435 15.5 4.83333C15.5 4.61232 15.4122 4.40036 15.2559 4.24408C15.0996 4.0878 14.8877 4 14.6667 4ZM6.33333 3.16667C6.33333 2.94565 6.42113 2.73369 6.57741 2.57741C6.73369 2.42113 6.94565 2.33333 7.16667 2.33333H8.83333C9.05435 2.33333 9.26631 2.42113 9.42259 2.57741C9.57887 2.73369 9.66667 2.94565 9.66667 3.16667V4H6.33333V3.16667ZM12.1667 14.8333C12.1667 15.0543 12.0789 15.2663 11.9226 15.4226C11.7663 15.5789 11.5543 15.6667 11.3333 15.6667H4.66667C4.44565 15.6667 4.23369 15.5789 4.07741 15.4226C3.92113 15.2663 3.83333 15.0543 3.83333 14.8333V5.66667H12.1667V14.8333ZM9.66667 14C9.88768 14 10.0996 13.9122 10.2559 13.7559C10.4122 13.5996 10.5 13.3877 10.5 13.1667V8.16667C10.5 7.94565 10.4122 7.73369 10.2559 7.57741C10.0996 7.42113 9.88768 7.33333 9.66667 7.33333C9.44565 7.33333 9.23369 7.42113 9.07741 7.57741C8.92113 7.73369 8.83333 7.94565 8.83333 8.16667V13.1667C8.83333 13.3877 8.92113 13.5996 9.07741 13.7559C9.23369 13.9122 9.44565 14 9.66667 14Z" fill="#FD443A"/>
</svg>
