<svg width="14" height="18" viewBox="0 0 14 18" fill="none" xmlns="http://www.w3.org/2000/svg">
<path d="M0.333496 9.00002C0.333496 9.22103 0.421294 9.433 0.577574 9.58928C0.733854 9.74556 0.945816 9.83335 1.16683 9.83335H7.49183L5.57516 11.7417C5.49706 11.8192 5.43506 11.9113 5.39275 12.0129C5.35045 12.1144 5.32866 12.2233 5.32866 12.3334C5.32866 12.4434 5.35045 12.5523 5.39275 12.6538C5.43506 12.7554 5.49706 12.8476 5.57516 12.925C5.65263 13.0031 5.7448 13.0651 5.84635 13.1074C5.9479 13.1497 6.05682 13.1715 6.16683 13.1715C6.27684 13.1715 6.38576 13.1497 6.48731 13.1074C6.58886 13.0651 6.68103 13.0031 6.7585 12.925L10.0918 9.59169C10.1677 9.51243 10.2272 9.41898 10.2668 9.31669C10.3502 9.1138 10.3502 8.88624 10.2668 8.68335C10.2272 8.58106 10.1677 8.48761 10.0918 8.40835L6.7585 5.07502C6.6808 4.99732 6.58856 4.93569 6.48704 4.89364C6.38552 4.85159 6.27671 4.82994 6.16683 4.82994C6.05695 4.82994 5.94814 4.85159 5.84662 4.89364C5.7451 4.93569 5.65286 4.99732 5.57516 5.07502C5.49746 5.15272 5.43583 5.24496 5.39378 5.34648C5.35173 5.448 5.33009 5.5568 5.33009 5.66669C5.33009 5.77657 5.35173 5.88538 5.39378 5.9869C5.43583 6.08841 5.49746 6.18066 5.57516 6.25835L7.49183 8.16669H1.16683C0.945816 8.16669 0.733854 8.25449 0.577574 8.41077C0.421294 8.56705 0.333496 8.77901 0.333496 9.00002ZM11.1668 0.666687H2.8335C2.17045 0.666687 1.53457 0.930079 1.06573 1.39892C0.596888 1.86776 0.333496 2.50365 0.333496 3.16669V5.66669C0.333496 5.8877 0.421294 6.09966 0.577574 6.25594C0.733854 6.41222 0.945816 6.50002 1.16683 6.50002C1.38784 6.50002 1.5998 6.41222 1.75608 6.25594C1.91237 6.09966 2.00016 5.8877 2.00016 5.66669V3.16669C2.00016 2.94567 2.08796 2.73371 2.24424 2.57743C2.40052 2.42115 2.61248 2.33335 2.8335 2.33335H11.1668C11.3878 2.33335 11.5998 2.42115 11.7561 2.57743C11.9124 2.73371 12.0002 2.94567 12.0002 3.16669V14.8334C12.0002 15.0544 11.9124 15.2663 11.7561 15.4226C11.5998 15.5789 11.3878 15.6667 11.1668 15.6667H2.8335C2.61248 15.6667 2.40052 15.5789 2.24424 15.4226C2.08796 15.2663 2.00016 15.0544 2.00016 14.8334V12.3334C2.00016 12.1123 1.91237 11.9004 1.75608 11.7441C1.5998 11.5878 1.38784 11.5 1.16683 11.5C0.945816 11.5 0.733854 11.5878 0.577574 11.7441C0.421294 11.9004 0.333496 12.1123 0.333496 12.3334V14.8334C0.333496 15.4964 0.596888 16.1323 1.06573 16.6011C1.53457 17.07 2.17045 17.3334 2.8335 17.3334H11.1668C11.8299 17.3334 12.4658 17.07 12.9346 16.6011C13.4034 16.1323 13.6668 15.4964 13.6668 14.8334V3.16669C13.6668 2.50365 13.4034 1.86776 12.9346 1.39892C12.4658 0.930079 11.8299 0.666687 11.1668 0.666687Z" fill="white"/>
</svg>
